<?xml version="1.0" encoding="iso-8859-1"?>
<!-- Generator: Adobe Illustrator 19.0.0, SVG Export Plug-In . SVG Version: 6.00 Build 0)  -->
<svg xmlns="http://www.w3.org/2000/svg" xmlns:xlink="http://www.w3.org/1999/xlink" version="1.1" id="Capa_1" x="0px" y="0px" viewBox="0 0 508 508" style="enable-background:new 0 0 508 508;" xml:space="preserve" width="512px" height="512px">
<g>
	<g>
		<path d="M451.206,256.3c-23.3-65.5-90.2-106.1-159-96.6c-8.5,1.1-16.1-2.5-20.6-9.7c-4.5-7.2-4.3-15.7,0.5-22.8l51.1-75.2l-39-52    c0,0-114.4,66.1-109.4,214.7l2.4,54.3c1.1,26-15.4,49.7-40.2,57.6c-23,7.3-41,25.4-48.2,48.4l-42,133h71.7l18.5-45.4    c14.5-27.5,38.3-22.8,47.2-18.9l45.9,20.7c102,43.6,173.9-32,173.9-32C493.506,352.4,451.206,256.3,451.206,256.3z M393.806,419.7    c0,0-66.3,69.4-157,29.9l-45.9-20.7c-12.3-7.1-52.2-10.5-68.9,27.6l-14.3,35.3h-38.7l35.1-111.9c5.6-17.9,19.7-32.1,37.6-37.8    c31.8-10.1,53-40.5,51.6-73.8l-2.4-54.3c-3.3-75.2,30.1-146.1,89.7-191.4l22.5,29.9l-44.6,65.6c-8.4,12.3-8.7,27.8-0.9,40.5    c7.9,12.7,21.9,19.3,36.7,17.2c61.2-8.4,120.8,27.7,141.5,86C435.806,261.8,475.406,345.1,393.806,419.7z" fill="#32c69a"/>
	</g>
</g>
<g>
	<g>
		<path d="M244.306,296.3c-13.5,0-24.4,11-24.4,24.4c0,13.4,11,24.4,24.4,24.4c13.4,0,24.4-11,24.4-24.4    C268.706,307.3,257.806,296.3,244.306,296.3z M244.306,328.8c-4.5,0-8.1-3.7-8.1-8.1c0-4.5,3.7-8.1,8.1-8.1c4.4,0,8.1,3.7,8.1,8.1    C252.506,325.2,248.806,328.8,244.306,328.8z" fill="#32c69a"/>
	</g>
</g>
<g>
	<g>
		<path d="M325.806,376.7c-13.5,0-24.4,11-24.4,24.4c0,13.4,11,24.4,24.4,24.4c13.4,0,24.4-11,24.4-24.4    C350.206,387.7,339.206,376.7,325.806,376.7z M325.806,409.2c-4.5,0-8.1-3.7-8.1-8.1c0-4.5,3.7-8.1,8.1-8.1c4.4,0,8.1,3.7,8.1,8.1    C333.906,405.6,330.206,409.2,325.806,409.2z" fill="#32c69a"/>
	</g>
</g>
<g>
	<g>
		<path d="M350.206,240.4c-21.8,0-39.6,17.8-39.6,39.6c0,21.8,17.8,39.6,39.6,39.6s39.6-17.8,39.6-39.6    C389.806,258.2,372.006,240.4,350.206,240.4z M350.206,303.2c-12.8,0-23.3-10.4-23.3-23.3c0-12.8,10.4-23.3,23.3-23.3    c12.8,0,23.3,10.4,23.3,23.3C373.506,292.8,363.006,303.2,350.206,303.2z" fill="#32c69a"/>
	</g>
</g>
<g>
</g>
<g>
</g>
<g>
</g>
<g>
</g>
<g>
</g>
<g>
</g>
<g>
</g>
<g>
</g>
<g>
</g>
<g>
</g>
<g>
</g>
<g>
</g>
<g>
</g>
<g>
</g>
<g>
</g>
</svg>
