<?xml version="1.0" encoding="iso-8859-1"?>
<!-- Generator: Adobe Illustrator 19.0.0, SVG Export Plug-In . SVG Version: 6.00 Build 0)  -->
<svg xmlns="http://www.w3.org/2000/svg" xmlns:xlink="http://www.w3.org/1999/xlink" version="1.1" id="Capa_1" x="0px" y="0px" viewBox="0 0 508 508" style="enable-background:new 0 0 508 508;" xml:space="preserve" width="512px" height="512px">
<g>
	<g>
		<path d="M327.8,152V49.2h16.4V0H163.9v49.2h16.4V152C91.8,183.1,32.8,266.2,32.8,360.5c0,93,56.4,147.5,56.4,147.5h329.6    c0,0,56.4-54.2,56.4-147.5C475.2,266.2,416.2,183.2,327.8,152z M180.3,16.4h147.5v16.4H180.3V16.4z M196.7,163.8V49.2h114.7v114.6    c0,0,82.8,21.2,122.3,98.4H74.3C112.4,186.4,196.7,163.8,196.7,163.8z M411.3,491.6H96.7C66,454.9,49.2,408.5,49.2,360.5    c0-28.9,6.1-56.7,17.1-82h375.5c11,25.3,17.1,53,17.1,82C458.8,408.5,442,454.9,411.3,491.6z" fill="#32c69a"/>
	</g>
</g>
<g>
	<g>
		<path d="M139.3,401.5c-13.6,0-24.6,11-24.6,24.6c0,13.6,11,24.6,24.6,24.6c13.6,0,24.6-11,24.6-24.6    C163.9,412.5,152.9,401.5,139.3,401.5z M139.3,434.2c-4.5,0-8.2-3.7-8.2-8.2s3.7-8.2,8.2-8.2s8.2,3.7,8.2,8.2    C147.5,430.6,143.8,434.2,139.3,434.2z" fill="#32c69a"/>
	</g>
</g>
<g>
	<g>
		<path d="M303.2,352.3c-22.6,0-41,18.4-41,41c0,22.6,18.4,41,41,41c22.6,0,41-18.4,41-41S325.8,352.3,303.2,352.3z M303.2,417.8    c-13.6,0-24.6-11-24.6-24.6c0-13.6,11-24.6,24.6-24.6c13.6,0,24.6,11,24.6,24.6C327.8,406.8,316.7,417.8,303.2,417.8z" fill="#32c69a"/>
	</g>
</g>
<g>
	<g>
		<path d="M401.5,303.1c-13.6,0-24.6,11-24.6,24.6c0,13.6,11,24.6,24.6,24.6c13.6,0,24.6-11,24.6-24.6    C426.1,314.2,415.1,303.1,401.5,303.1z M401.5,335.9c-4.5,0-8.2-3.7-8.2-8.2s3.7-8.2,8.2-8.2s8.2,3.7,8.2,8.2    S406,335.9,401.5,335.9z" fill="#32c69a"/>
	</g>
</g>
<g>
	<g>
		<path d="M163.9,311.3c-18.1,0-32.8,14.7-32.8,32.8s14.7,32.8,32.8,32.8c18.1,0,32.8-14.7,32.8-32.8S182,311.3,163.9,311.3z     M163.9,360.5c-9,0-16.4-7.3-16.4-16.4c0-9,7.3-16.4,16.4-16.4c9,0,16.4,7.3,16.4,16.4C180.3,353.1,172.9,360.5,163.9,360.5z" fill="#32c69a"/>
	</g>
</g>
<g>
	<g>
		<path d="M270.4,131c-13.6,0-24.6,11-24.6,24.6c0,13.6,11.1,24.6,24.6,24.6c13.6,0,24.6-11,24.6-24.6C295,142,284,131,270.4,131z     M270.4,163.9c-4.5,0-8.2-3.7-8.2-8.2s3.7-8.2,8.2-8.2s8.2,3.7,8.2,8.2S274.9,163.9,270.4,163.9z" fill="#32c69a"/>
	</g>
</g>
<g>
	<g>
		<path d="M213.1,180.2c-18.1,0-32.8,14.8-32.8,32.8s14.7,32.8,32.8,32.8c18.1,0,32.8-14.7,32.8-32.8    C245.9,194.9,231.2,180.2,213.1,180.2z M213.1,229.4c-9,0-16.4-7.3-16.4-16.4c0-9,7.3-16.4,16.4-16.4c9,0,16.4,7.3,16.4,16.4    C229.5,222,222.2,229.4,213.1,229.4z" fill="#32c69a"/>
	</g>
</g>
<g>
</g>
<g>
</g>
<g>
</g>
<g>
</g>
<g>
</g>
<g>
</g>
<g>
</g>
<g>
</g>
<g>
</g>
<g>
</g>
<g>
</g>
<g>
</g>
<g>
</g>
<g>
</g>
<g>
</g>
</svg>
