<?xml version="1.0" encoding="iso-8859-1"?>
<!-- Generator: Adobe Illustrator 19.0.0, SVG Export Plug-In . SVG Version: 6.00 Build 0)  -->
<svg xmlns="http://www.w3.org/2000/svg" xmlns:xlink="http://www.w3.org/1999/xlink" version="1.1" id="Capa_1" x="0px" y="0px" viewBox="0 0 508 508" style="enable-background:new 0 0 508 508;" xml:space="preserve" width="512px" height="512px">
<g>
	<g>
		<path d="M508,196.65v-81.9H335.9v-41H172.1v41H0v81.9h65.5v140c-23.2,3.9-41,24.1-41,48.4c0,27.1,22.1,49.2,49.2,49.2    c27.1,0,49.2-22.1,49.2-49.2c0-24.3-17.8-44.5-41-48.4v-74.5H426v74.5c-23.2,3.9-41,24.1-41,48.4c0,27.1,22.1,49.2,49.2,49.2    c27.1,0,49.2-22.1,49.2-49.2c0-24.3-17.8-44.5-41-48.4v-140H508z M188.5,90.15h131.1v24.6H188.5V90.15z M106.5,385.15    c0,18.1-14.7,32.8-32.8,32.8c-18.1,0-32.7-14.7-32.7-32.8c0-18.1,14.7-32.8,32.8-32.8C91.9,352.35,106.5,367.05,106.5,385.15z     M81.9,245.85v-49.2H426v49.2H81.9z M467,385.15c0,18.1-14.7,32.8-32.8,32.8s-32.8-14.7-32.8-32.8s14.7-32.8,32.8-32.8    S467,367.05,467,385.15z M16.4,180.35v-49.2h475.2v49.2H16.4z" fill="#32c69a"/>
	</g>
</g>
<g>
	<g>
		<rect x="245.8" y="303.25" width="16.4" height="16.4" fill="#32c69a"/>
	</g>
</g>
<g>
	<g>
		<rect x="278.6" y="303.25" width="16.4" height="16.4" fill="#32c69a"/>
	</g>
</g>
<g>
	<g>
		<rect x="213" y="303.25" width="16.4" height="16.4" fill="#32c69a"/>
	</g>
</g>
<g>
</g>
<g>
</g>
<g>
</g>
<g>
</g>
<g>
</g>
<g>
</g>
<g>
</g>
<g>
</g>
<g>
</g>
<g>
</g>
<g>
</g>
<g>
</g>
<g>
</g>
<g>
</g>
<g>
</g>
</svg>
