<?xml version="1.0" encoding="iso-8859-1"?>
<!-- Generator: Adobe Illustrator 19.0.0, SVG Export Plug-In . SVG Version: 6.00 Build 0)  -->
<svg xmlns="http://www.w3.org/2000/svg" xmlns:xlink="http://www.w3.org/1999/xlink" version="1.1" id="Capa_1" x="0px" y="0px" viewBox="0 0 508.2 508.2" style="enable-background:new 0 0 508.2 508.2;" xml:space="preserve" width="512px" height="512px">
<g>
	<g>
		<path d="M507.6,204.95h-32c-0.2,0-0.4-0.2-0.4-0.4V90.65c0-0.2,0.2-0.4,0.4-0.4h15.6c0.2,0,0.4-0.2,0.4-0.4v-48.4    c0-0.2-0.2-0.4-0.4-0.4H344.5c-0.2,0-0.4,0.2-0.4,0.4v48.4c0,0.2,0.2,0.4,0.4,0.4h15.6c0.2,0,0.4,0.2,0.4,0.4v113.9    c0,0.2-0.2,0.4-0.4,0.4h-48.4c-0.2,0-0.4-0.2-0.4-0.4V90.65c0-0.2,0.2-0.4,0.4-0.4h15.6c0.2,0,0.4-0.2,0.4-0.4v-48.4    c0-0.2-0.2-0.4-0.4-0.4H180.6c-0.2,0-0.4,0.2-0.4,0.4v48.4c0,0.2,0.2,0.4,0.4,0.4h15.6c0.2,0,0.4,0.2,0.4,0.4v113.9    c0,0.2-0.2,0.4-0.4,0.4h-48.4c-0.2,0-0.4-0.2-0.4-0.4V90.65c0-0.2,0.2-0.4,0.4-0.4h15.6c0.2,0,0.4-0.2,0.4-0.4v-48.4    c0-0.2-0.2-0.4-0.4-0.4H16.8c-0.2,0-0.4,0.2-0.4,0.4v48.4c0,0.2,0.2,0.4,0.4,0.4h15.6c0.2,0,0.4,0.2,0.4,0.4v113.9    c0,0.2-0.2,0.4-0.4,0.4h-32c-0.2,0-0.4,0.2-0.4,0.4v245c0,0.2,0.2,0.4,0.4,0.4h73c0.2,0,0.4,0.2,0.4,0.4v15.6    c0,0.2,0.2,0.4,0.4,0.4h15.6c0.2,0,0.4-0.2,0.4-0.4v-15.6c0-0.2,0.2-0.4,0.4-0.4h327c0.2,0,0.4,0.2,0.4,0.4v15.6    c0,0.2,0.2,0.4,0.4,0.4H434c0.2,0,0.4-0.2,0.4-0.4v-15.6c0-0.2,0.2-0.4,0.4-0.4h73c0.2,0,0.4-0.2,0.4-0.4v-245    C508,205.15,507.8,204.95,507.6,204.95z M360.5,57.85c0-0.2,0.2-0.3,0.4-0.3h113.9c0.2,0,0.4,0.2,0.4,0.4v15.6    c0,0.2-0.2,0.4-0.4,0.4H360.9c-0.2,0-0.4-0.2-0.4-0.4V57.85z M376.9,172.55c0-0.2,0.2-0.4,0.4-0.4h81.2c0.2,0,0.4,0.2,0.4,0.4    v32.4v16.4h-0.1v104.4c0,21.6-15.7,41-37.2,43c-24.3,2.2-44.7-17-44.7-40.8V172.55z M376.8,155.45v-64.8c0-0.2,0.2-0.4,0.4-0.4    h81.2c0.3,0,0.4,0.2,0.4,0.4v64.8c0,0.2-0.2,0.4-0.4,0.4h-81.2C377,155.85,376.8,155.65,376.8,155.45z M196.6,57.85    c0-0.2,0.2-0.3,0.4-0.3h114c0.2,0,0.4,0.2,0.4,0.4v15.6c0,0.2-0.2,0.4-0.4,0.4H197c-0.2,0-0.4-0.2-0.4-0.4V57.85z M213.4,254.15    h81.2c0.2,0,0.4,0.2,0.4,0.4v71.2c0,21.6-15.7,41-37.2,43c-24.3,2.2-44.7-17-44.7-40.8v-73.4    C213,254.35,213.2,254.15,213.4,254.15z M294.6,237.75h-81.2c-0.2,0-0.4-0.2-0.4-0.4V90.65c0-0.2,0.2-0.4,0.4-0.4h81.2    c0.2,0,0.4,0.2,0.4,0.4v146.7C295,237.55,294.8,237.75,294.6,237.75z M32.8,57.85c0-0.2,0.1-0.3,0.4-0.3h113.9    c0.2,0,0.4,0.2,0.4,0.4v15.6c0,0.2-0.2,0.4-0.4,0.4H33.2c-0.2,0-0.4-0.2-0.4-0.4V57.85z M130.7,123.05H49.5    c-0.2,0-0.4-0.2-0.4-0.4v-32c0-0.2,0.2-0.4,0.4-0.4h81.2c0.2,0,0.4,0.2,0.4,0.4v32C131.1,122.85,130.9,123.05,130.7,123.05z     M131.1,139.85v185.9c0,21.6-15.7,41-37.2,43c-24.3,2.2-44.7-17-44.7-40.8v-106.6v-16.4v-65.2c0-0.1,0.1-0.3,0.3-0.3h81.2    C130.9,139.45,131.1,139.65,131.1,139.85z M491.7,434.05c-0.1,0.2-0.3,0.4-0.5,0.4H16.8c-0.2,0-0.4-0.2-0.4-0.4v-212.3    c0-0.2,0.2-0.4,0.4-0.4h15.6c0.2,0,0.4,0.2,0.4,0.4v103.8c0,29.3,21,55.6,50.1,59.2c34.8,4.3,64.6-22.9,64.6-56.9v-106.1    c0-0.2,0.2-0.4,0.4-0.4h48.4c0.2,0,0.4,0.2,0.4,0.4v103.8c0,29.3,21,55.6,50.1,59.2c34.8,4.3,64.6-22.9,64.6-56.9v-106.1    c0-0.2,0.2-0.4,0.4-0.4h48.4c0.2,0,0.4,0.2,0.4,0.4v103.8c0,29.3,21,55.6,50.1,59.2c34.8,4.3,64.6-22.9,64.6-56.9v-106.1    c0-0.2,0.2-0.4,0.4-0.4h15.6c0.2,0,0.4,0.2,0.4,0.4V434.05z" fill="#32c69a"/>
	</g>
</g>
<g>
	<g>
		<path d="M261.8,401.65h-15.6c-0.2,0-0.4,0.2-0.4,0.4v15.6c0,0.2,0.2,0.4,0.4,0.4h15.6c0.2,0,0.4-0.2,0.4-0.4v-15.6    C262.2,401.85,262,401.65,261.8,401.65z" fill="#32c69a"/>
	</g>
</g>
<g>
	<g>
		<path d="M229,401.65h-15.6c-0.2,0-0.4,0.2-0.4,0.4v15.6c0,0.2,0.2,0.4,0.4,0.4H229c0.2,0,0.4-0.2,0.4-0.4v-15.6    C229.4,401.85,229.2,401.65,229,401.65z" fill="#32c69a"/>
	</g>
</g>
<g>
	<g>
		<path d="M294.6,401.65H279c-0.2,0-0.4,0.2-0.4,0.4v15.6c0,0.2,0.2,0.4,0.4,0.4h15.6c0.2,0,0.4-0.2,0.4-0.4v-15.6    C295,401.85,294.8,401.65,294.6,401.65z" fill="#32c69a"/>
	</g>
</g>
<g>
</g>
<g>
</g>
<g>
</g>
<g>
</g>
<g>
</g>
<g>
</g>
<g>
</g>
<g>
</g>
<g>
</g>
<g>
</g>
<g>
</g>
<g>
</g>
<g>
</g>
<g>
</g>
<g>
</g>
</svg>
