<?xml version="1.0" encoding="iso-8859-1"?>
<!-- Generator: Adobe Illustrator 19.0.0, SVG Export Plug-In . SVG Version: 6.00 Build 0)  -->
<svg xmlns="http://www.w3.org/2000/svg" xmlns:xlink="http://www.w3.org/1999/xlink" version="1.1" id="Capa_1" x="0px" y="0px" viewBox="0 0 508 508" style="enable-background:new 0 0 508 508;" xml:space="preserve" width="512px" height="512px">
<g>
	<g>
		<path d="M458.3,199.5c6.3-77.7-58.3-139.3-130.5-139.3c-26.5,0-51.9,7.9-73.7,22.9c-21.9-15-47.2-22.9-73.7-22.9    c-72.3,0-135.7,59.6-130.5,139.3H0v16.4h53.6C80.6,304.5,254,447.8,254,447.8s172-141.4,200.4-231.9H508v-16.4H458.3z M254,426.4    C226.3,402.6,97.8,289.6,70.7,215.9h40.6l26-45.6l34.1,102.2l17.5-43.7l33.5,75.3l48.8-146.3l30.5,76.2l39-62.5l23.8,103.3    l49.1-58.9h23.8C410.2,289.6,281.7,402.6,254,426.4z M441.7,199.5h-35.9L373,238.9l-25.3-109.7l-42.9,68.6l-35.1-87.7l-49.6,148.7    L188,186.6l-15.3,38.2l-31.5-94.5l-39.5,69.1H66.3c-3.8-71.9,50.7-122.8,114-122.8c44.1,0,73.7,26.8,73.7,26.8    s29.5-26.8,73.7-26.8C391,76.6,448,131.1,441.7,199.5z" fill="#32c69a"/>
	</g>
</g>
<g>
</g>
<g>
</g>
<g>
</g>
<g>
</g>
<g>
</g>
<g>
</g>
<g>
</g>
<g>
</g>
<g>
</g>
<g>
</g>
<g>
</g>
<g>
</g>
<g>
</g>
<g>
</g>
<g>
</g>
</svg>
